<svg xmlns="http://www.w3.org/2000/svg" viewBox="0 0 500 500">
  <path d="M 142.563 75.395 L 355.617 75.395 C 361.692 75.395 366.617 80.32 366.617 86.395 L 366.617 389.127 C 366.617 395.202 361.692 400.127 355.617 400.127 L 142.563 400.127 C 136.488 400.127 131.563 395.202 131.563 389.127 L 131.563 86.395 C 131.563 80.32 136.488 75.395 142.563 75.395 Z M 474.777 115.406 C 480.719 116.669 484.513 122.511 483.25 128.453 L 419.045 430.513 C 417.782 436.455 411.941 440.248 405.999 438.985 L 260.763 408.115 L 364.959 408.115 C 371.034 408.115 375.959 403.19 375.959 397.115 L 375.959 94.402 Z M 94.002 436.483 C 88.059 437.746 82.218 433.953 80.955 428.01 L 16.75 125.95 C 15.487 120.007 19.28 114.166 25.223 112.903 L 123.57 91.999 L 123.57 397.115 C 123.57 403.19 128.495 408.115 134.57 408.115 L 227.463 408.115 Z" style="stroke-width: 5; fill: rgb(255, 255, 255);"></path>
  <path d="M 95.748 381.248 L 103.261 384.8 C 138 401.227 170.566 409.013 202.98 409.013 C 224.539 409.013 243.242 405.837 260.851 399.223 C 278.348 392.651 291.06 384.593 300.748 373.447 C 310.551 362.831 314.321 352.981 314.321 340.738 C 314.321 328.615 310.793 319.656 302.201 310.089 C 293.188 300.053 276.93 288.407 252.058 274.461 C 227.366 260.408 212.238 251.706 206.776 248.416 C 201.249 245.082 193.686 240.113 184.952 234.113 C 168.269 221.129 158.051 203.733 158.051 185.729 C 158.051 154.516 182.83 123.296 227.113 96.077 C 239.549 88.468 254.094 81.42 269.965 75.319 C 285.82 69.257 301.806 64.538 317.173 61.379 C 332.583 58.25 347.558 56.596 361.149 56.596 C 381.285 56.596 398.678 60.353 411.015 66.983 C 423.665 74.688 432.334 87.387 432.334 100.933 C 432.334 116.419 424.244 134.093 410.097 150.483 C 396.209 166.574 376.742 181.727 353.161 195.084 L 348.858 197.522 L 302.828 175.418 L 318.442 166.428 C 333.741 157.619 346.247 149.089 356.633 140.367 C 366.991 131.738 374.461 123.905 379.904 115.923 C 385.275 108.387 387.078 103.3 387.078 97.963 C 387.078 94.796 387.071 93.879 384.858 91.989 C 382.813 89.46 380.346 88.285 375.461 86.796 C 370.344 85.236 364.369 84.508 356.088 84.508 C 340.368 84.508 324.033 87.008 305.756 92.366 C 287.348 97.694 270.5 104.566 254.303 113.349 C 218.582 132.193 203.625 150.245 203.625 171.686 C 203.625 176.983 204.66 180.608 208.426 185.373 C 212.157 190.644 218.757 196.328 229.376 203.539 C 240.215 210.951 256.036 220.447 277.203 232.252 C 293.155 241.152 305.5 248.587 313.861 254.324 C 322.416 260.243 330.02 266.908 335.766 273.507 C 348.341 287.657 355.783 304.99 355.783 322.645 C 355.783 336.258 351.171 351.106 343.22 364.764 C 335.183 378.116 323.475 391.184 309.207 402.697 C 275.499 429.3 228.028 443.405 169.769 443.405 C 131.931 443.405 100.785 438.482 78.161 429.168 L 67.666 424.847 L 95.748 381.248 Z" style="fill: rgb(255, 59, 59); stroke-width: 10px; stroke: rgb(38, 38, 38);"></path>
</svg>